<svg id="Layer_1" xmlns="http://www.w3.org/2000/svg" viewBox="0 0 40 46"><style>.st0{fill:#6d6d6d}</style><g id="Icons_2_"><g id="Black_2_" transform="translate(-503 -362)"><path id="Vine" class="st0" d="M543 384.8c-1.2.3-2.3.4-3.3.4-5.8 0-10.2-4.1-10.2-11.1 0-3.5 1.3-5.3 3.2-5.3 1.8 0 3 1.6 3 4.9 0 1.9-.5 3.9-.9 5.1 0 0 1.8 3.1 6.6 2.2 1-2.3 1.6-5.3 1.6-7.9 0-7-3.6-11.1-10.1-11.1-6.7 0-10.6 5.2-10.6 12.1 0 6.8 3.2 12.6 8.4 15.3-2.2 4.4-5 8.3-7.9 11.2-5.3-6.4-10-15-12-31.7H503c3.6 27.8 14.3 36.7 17.1 38.4 1.6 1 3 .9 4.4.1 2.3-1.3 9.2-8.3 13-16.4 1.6 0 3.5-.2 5.4-.6l.1-5.6z"/></g></g></svg>