<svg id="Layer_1" xmlns="http://www.w3.org/2000/svg" viewBox="0 0 47.9 48"><style>.st0{fill:#6d6d6d}</style><g id="Icons_7_"><g id="Black_7_" transform="translate(-500 -160)"><path id="Instagram" class="st0" d="M523.9 160c-6.5 0-7.3 0-9.9.1-2.6.1-4.3.5-5.8 1.1-1.6.6-2.9 1.4-4.3 2.8-1.3 1.3-2.2 2.7-2.8 4.3-.6 1.5-1 3.3-1.1 5.8-.1 2.6-.1 3.4-.1 9.9s0 7.3.1 9.9c.1 2.6.5 4.3 1.1 5.8.6 1.6 1.4 2.9 2.8 4.3 1.3 1.3 2.7 2.2 4.3 2.8 1.5.6 3.3 1 5.8 1.1 2.6.1 3.4.1 9.9.1s7.3 0 9.9-.1c2.6-.1 4.3-.5 5.8-1.1 1.6-.6 2.9-1.4 4.3-2.8 1.3-1.3 2.2-2.7 2.8-4.3.6-1.5 1-3.3 1.1-5.8.1-2.6.1-3.4.1-9.9s0-7.3-.1-9.9-.5-4.3-1.1-5.8c-.6-1.6-1.4-2.9-2.8-4.3-1.3-1.3-2.7-2.2-4.3-2.8-1.5-.6-3.3-1-5.8-1.1-2.6-.1-3.4-.1-9.9-.1zm0 4.3c6.4 0 7.2 0 9.7.1 2.3.1 3.6.5 4.5.8 1.1.4 1.9 1 2.8 1.8.8.8 1.4 1.6 1.8 2.8.3.8.7 2.1.8 4.5.1 2.5.1 3.3.1 9.7 0 6.4 0 7.2-.1 9.7-.1 2.3-.5 3.6-.8 4.5-.4 1.1-1 1.9-1.8 2.8-.8.8-1.6 1.4-2.8 1.8-.8.3-2.1.7-4.5.8-2.5.1-3.3.1-9.7.1s-7.2 0-9.7-.1c-2.3-.1-3.6-.5-4.5-.8-1.1-.4-1.9-1-2.8-1.8-.8-.8-1.4-1.6-1.8-2.8-.3-.8-.7-2.1-.8-4.5-.1-2.5-.1-3.3-.1-9.7s0-7.2.1-9.7c.1-2.3.5-3.6.8-4.5.4-1.1 1-1.9 1.8-2.8.8-.8 1.6-1.4 2.8-1.8.8-.3 2.1-.7 4.5-.8 2.5-.1 3.3-.1 9.7-.1zm0 7.4c-6.8 0-12.3 5.5-12.3 12.3s5.5 12.3 12.3 12.3 12.3-5.5 12.3-12.3-5.5-12.3-12.3-12.3zm0 20.3c-4.4 0-8-3.6-8-8s3.6-8 8-8 8 3.6 8 8-3.6 8-8 8zm15.7-20.8c0 1.6-1.3 2.9-2.9 2.9-1.6 0-2.9-1.3-2.9-2.9s1.3-2.9 2.9-2.9c1.6 0 2.9 1.3 2.9 2.9z"/></g></g></svg>