<svg id="Layer_1" xmlns="http://www.w3.org/2000/svg" viewBox="0 0 37 48"><style>.st0{fill:#6d6d6d}</style><g id="Icons_5_"><g id="Black_5_" transform="translate(-205 -860)"><path id="Periscope" class="st0" d="M242 878.7c0 13.9-14.8 29.3-18.5 29.3S205 892.7 205 878.7c0-10.4 8.3-18.7 18.5-18.7s18.5 8.4 18.5 18.7zm-18.5-11.3c-.9 0-1.8.1-2.6.3 1.5.7 2.5 2.3 2.5 4.1 0 2.5-2 4.6-4.5 4.6-2.4 0-4.4-1.9-4.5-4.3-1.3 1.9-2.1 4.2-2.1 6.7 0 6.3 5 11.4 11.2 11.4s11.2-5.1 11.2-11.4c0-6.3-5-11.4-11.2-11.4z"/></g></g></svg>