<svg id="Layer_1" xmlns="http://www.w3.org/2000/svg" viewBox="0 0 34 48"><style>.st0{fill:#6d6d6d}</style><g id="Icons"><g id="Black" transform="translate(-707 -760)"><path id="Foursquare" class="st0" d="M735.3 766.9l-1.1 5.6c-.1.6-.7 1.1-1.4 1.1h-9.9c-1.1 0-2 .9-2 2v1.2c0 1.1.9 2 2 2h8.3c.8 0 1.4.8 1.3 1.6-.2.9-1 5.2-1.1 5.7s-.6 1.1-1.4 1.1h-6.8c-1.4 0-1.7.1-2.6 1.1-.8 1.1-8.3 10.5-8.3 10.5-.1.1-.1.1-.1 0v-32.2c0-.8.6-1.4 1.4-1.4h20.5c.7.1 1.4.8 1.2 1.7m1.5-6.9h-25.3c-3.5 0-4.5 2.7-4.5 4.3V805c0 2 1 2.6 1.6 2.8.6.2 2 .4 3.1-.7 0 0 12-14.2 12.2-14.4.2-.2.3-.2.4-.2h7.6c3.2 0 3.9-2.3 4.2-3.6.3-1.1 3.6-17.6 4.7-22.8.7-4-.3-6.1-4-6.1"/></g></g></svg>