<?xml version="1.0" encoding="utf-8"?>
<!-- Generator: Adobe Illustrator 20.1.0, SVG Export Plug-In . SVG Version: 6.00 Build 0)  -->
<svg version="1.1" id="Layer_1" xmlns="http://www.w3.org/2000/svg" xmlns:xlink="http://www.w3.org/1999/xlink" x="0px" y="0px"
	 viewBox="0 0 200 200" style="enable-background:new 0 0 200 200;" xml:space="preserve">
<style type="text/css">
	.st0{fill:#FFFFFF;}
</style>
<path class="st0" d="M130.6,132.2c0,3.1,1.1,5.9,2.9,8.2C131.1,137.2,130.7,133.3,130.6,132.2z"/>
<path class="st0" d="M130.6,101V42.9H41v89.3c0,11.3,9.2,20.5,20.5,20.5h82c11.3,0,20.5-9.2,20.5-20.5V101H130.6z M61.5,145.2
	c-7.1,0-13-5.8-13-12.9V50.5H123v82c0.2,3.4,1.4,8.3,4.4,12.3c0.1,0.1,0.2,0.2,0.2,0.3H61.5z M156.4,132.2c0,7.1-5.8,12.9-12.9,12.9
	c-0.2,0-0.5,0-0.7,0c-0.3,0-0.5,0-0.7-0.1c-4.1-0.4-6.8-2.3-8.5-4.6c0,0-0.1-0.1-0.1-0.1c-1.8-2.2-2.9-5.1-2.9-8.2v-23.7h25.9V132.2
	z"/>
<path class="st0" d="M123,132.5c0.1,4.6,1.7,8.9,4.4,12.3C124.4,140.7,123.2,135.9,123,132.5z M133.5,140.5c1.7,2.3,4.3,4.2,8.5,4.6
	C138.6,144.7,135.6,143,133.5,140.5z M133.5,140.5c1.7,2.3,4.3,4.2,8.5,4.6C138.6,144.7,135.6,143,133.5,140.5z"/>
<rect x="60.5" y="68.3" class="st0" width="50.9" height="7.6"/>
<rect x="60.5" y="90.6" class="st0" width="50.9" height="7.6"/>
<rect x="60.5" y="112.8" class="st0" width="50.9" height="7.6"/>
</svg>
