<svg id="Layer_1" xmlns="http://www.w3.org/2000/svg" viewBox="0 0 200 200"><style>.st0{fill:#19453b}</style><path class="st0" d="M130.6 132.2c0 3.1 1.1 5.9 2.9 8.2-2.4-3.2-2.8-7.1-2.9-8.2z"/><path class="st0" d="M130.6 101V42.9H41v89.3c0 11.3 9.2 20.5 20.5 20.5h82c11.3 0 20.5-9.2 20.5-20.5V101h-33.4zm-69.1 44.2c-7.1 0-13-5.8-13-12.9V50.5H123v82c.2 3.4 1.4 8.3 4.4 12.3.1.1.2.2.2.3H61.5zm94.9-13c0 7.1-5.8 12.9-12.9 12.9h-.7c-.3 0-.5 0-.7-.1-4.1-.4-6.8-2.3-8.5-4.6l-.1-.1c-1.8-2.2-2.9-5.1-2.9-8.2v-23.7h25.9v23.8z"/><path class="st0" d="M123 132.5c.1 4.6 1.7 8.9 4.4 12.3-3-4.1-4.2-8.9-4.4-12.3zm10.5 8c1.7 2.3 4.3 4.2 8.5 4.6-3.4-.4-6.4-2.1-8.5-4.6zm0 0c1.7 2.3 4.3 4.2 8.5 4.6-3.4-.4-6.4-2.1-8.5-4.6zm-73-72.2h50.9v7.6H60.5zm0 22.3h50.9v7.6H60.5zm0 22.2h50.9v7.6H60.5z"/></svg>