<svg id="Layer_1" xmlns="http://www.w3.org/2000/svg" viewBox="0 0 47.8 44.8"><style>.st0{fill:#6d6d6d}</style><g id="Icons_4_"><g id="Black_4_" transform="translate(-201 -262)"><path id="Snapchat" class="st0" d="M225.1 262h-.9c-1.1 0-3.2.2-5.5 1.2-1.3.6-2.5 1.4-3.5 2.3-1.2 1.1-2.2 2.6-2.9 4.2-1.1 2.4-.8 6.4-.6 9.7 0 .3 0 .7.1 1.1-.2.1-.4.1-.8.1-.6 0-1.3-.2-2.1-.6-.2-.1-.5-.2-.8-.2-.5 0-1 .1-1.4.4-.6.3-.9.8-1 1.3-.1.3-.1 1 .7 1.7.4.4 1 .7 1.8 1 .2.1.4.2.7.2.9.3 2.2.7 2.6 1.5.2.4.1 1-.2 1.6v.1c-.1.2-.8 1.9-2.4 3.7-.9 1-1.9 1.9-2.9 2.6-1.3.8-2.7 1.4-4.1 1.6-.6.1-1 .6-.9 1.2 0 .2 0 .3.1.5.2.5.8 1 1.6 1.4 1.1.5 2.6.9 4.7 1.2.1.2.2.7.3 1 .1.4.2.7.3 1.1.1.4.5.9 1.3.9.3 0 .7-.1 1.1-.2.6-.1 1.5-.3 2.5-.3.6 0 1.2.1 1.8.2 1.2.2 2.2.9 3.4 1.7 1.7 1.2 3.7 2.6 6.6 2.6h.5c3 0 4.9-1.4 6.6-2.6 1.2-.8 2.2-1.5 3.4-1.7.6-.1 1.2-.2 1.8-.2 1 0 1.8.1 2.5.3.5.1.8.1 1.1.1.6 0 1.1-.3 1.2-.9.1-.4.2-.7.3-1.1.1-.3.2-.8.3-1 2.1-.3 3.6-.7 4.7-1.2.9-.4 1.4-.9 1.6-1.4.1-.2.1-.3.1-.5 0-.6-.4-1.1-.9-1.2-6.4-1.1-9.3-7.6-9.4-7.9v-.1c-.3-.7-.4-1.2-.2-1.6.4-.8 1.7-1.2 2.6-1.5.3-.1.5-.2.7-.2.9-.3 1.5-.7 1.9-1.1.5-.5.6-1 .6-1.3 0-.8-.6-1.5-1.5-1.8-.3-.1-.7-.2-1-.2s-.6 0-1 .2c-.8.4-1.4.5-2 .6-.3 0-.5-.1-.7-.1 0-.3 0-.6.1-.9v-.1c.2-3.2.5-7.3-.6-9.7-.7-1.6-1.7-3.1-2.9-4.2-1-1-2.2-1.7-3.5-2.3-2.7-1.1-4.9-1.2-5.9-1.2"/></g></g></svg>