<svg id="Layer_1" xmlns="http://www.w3.org/2000/svg" viewBox="0 0 44.1 40"><style>.st0{fill:#6d6d6d}</style><g id="Icons_6_"><g id="Black_6_" transform="translate(-702 -265)"><path id="LinkedIn" class="st0" d="M746 305h-9.7v-14.1c0-3.7-1.5-6.2-4.9-6.2-2.6 0-4 1.7-4.6 3.3-.2.6-.2 1.4-.2 2.2V305H717s.1-24.9 0-27.2h9.6v4.3c.6-1.9 3.6-4.5 8.6-4.5 6.1 0 10.9 3.9 10.9 12.3V305h-.1zm-38.8-30.6c-3.2 0-5.2-2.1-5.2-4.7 0-2.7 2.1-4.7 5.2-4.7 3.2 0 5.1 2 5.2 4.7 0 2.6-2 4.7-5.2 4.7zm-4.1 3.4h8.6V305h-8.6v-27.2z"/></g></g></svg>