<svg id="Layer_1" xmlns="http://www.w3.org/2000/svg" viewBox="0 0 47.5 34"><style>.st0{fill:#6d6d6d}</style><g id="Icons_1_"><g id="Black_1_" transform="translate(-200 -368)"><path id="Youtube" class="st0" d="M218.5 391.3v-13.6l13 6.8-13 6.8zm28.5-16s-.5-3.3-1.9-4.8c-1.8-1.9-3.9-1.9-4.8-2-6.7-.5-16.8-.5-16.8-.5s-10.1 0-16.8.5c-.9.1-3 .1-4.8 2-1.4 1.5-1.9 4.8-1.9 4.8s-.5 3.9-.5 7.8v3.7c0 3.9.5 7.8.5 7.8s.5 3.3 1.9 4.8c1.8 1.9 4.2 1.9 5.3 2.1 3.8.4 16.3.5 16.3.5s10.1 0 16.8-.5c.9-.1 3-.1 4.8-2 1.4-1.5 1.9-4.8 1.9-4.8s.5-3.9.5-7.8v-3.7c0-4-.5-7.9-.5-7.9z"/></g></g></svg>