<?xml version="1.0" encoding="utf-8"?>
<!-- Generator: Adobe Illustrator 20.1.0, SVG Export Plug-In . SVG Version: 6.00 Build 0)  -->
<svg version="1.1" id="Layer_1" xmlns="http://www.w3.org/2000/svg" xmlns:xlink="http://www.w3.org/1999/xlink" x="0px" y="0px"
	 viewBox="0 0 37 48" style="enable-background:new 0 0 37 48;" xml:space="preserve">
<style type="text/css">
	.st0{fill:#6D6D6D;}
</style>
<g id="Icons_5_">
	<g id="Black_5_" transform="translate(-205.000000, -860.000000)">
		<path id="Periscope" class="st0" d="M242,878.7c0,13.9-14.8,29.3-18.5,29.3S205,892.7,205,878.7c0-10.4,8.3-18.7,18.5-18.7
			S242,868.4,242,878.7z M223.5,867.4c-0.9,0-1.8,0.1-2.6,0.3c1.5,0.7,2.5,2.3,2.5,4.1c0,2.5-2,4.6-4.5,4.6c-2.4,0-4.4-1.9-4.5-4.3
			c-1.3,1.9-2.1,4.2-2.1,6.7c0,6.3,5,11.4,11.2,11.4s11.2-5.1,11.2-11.4C234.7,872.5,229.7,867.4,223.5,867.4z"/>
	</g>
</g>
</svg>
