<?xml version="1.0" encoding="utf-8"?>
<!-- Generator: Adobe Illustrator 20.1.0, SVG Export Plug-In . SVG Version: 6.00 Build 0)  -->
<svg version="1.1" id="Layer_1" xmlns="http://www.w3.org/2000/svg" xmlns:xlink="http://www.w3.org/1999/xlink" x="0px" y="0px"
	 viewBox="0 0 48 39.9" style="enable-background:new 0 0 48 39.9;" xml:space="preserve">
<style type="text/css">
	.st0{fill:#6D6D6D;}
</style>
<g id="Icons_3_">
	<g id="Black_3_" transform="translate(-300.000000, -164.000000)">
		<path id="Twitter" class="st0" d="M348,168.8c-1.8,0.8-3.7,1.3-5.7,1.6c2-1.2,3.6-3.2,4.3-5.6c-1.9,1.2-4,2-6.3,2.4
			c-1.8-2-4.4-3.2-7.2-3.2c-5.4,0-9.8,4.5-9.8,10.1c0,0.8,0.1,1.6,0.3,2.3c-8.2-0.4-15.4-4.4-20.3-10.6c-0.8,1.5-1.3,3.2-1.3,5.1
			c0,3.5,1.7,6.6,4.4,8.4c-1.6,0-3.1-0.5-4.5-1.3v0.1c0,4.9,3.4,9,7.9,9.9c-0.8,0.2-1.7,0.4-2.6,0.4c-0.6,0-1.3-0.1-1.9-0.2
			c1.3,4,4.9,6.9,9.2,7c-3.4,2.7-7.6,4.3-12.2,4.3c-0.8,0-1.6,0-2.3-0.1c4.4,2.9,9.5,4.5,15.1,4.5c18.1,0,28-15.4,28-28.7
			c0-0.4,0-0.9,0-1.3C345,172.6,346.7,170.9,348,168.8"/>
	</g>
</g>
</svg>
