<?xml version="1.0" encoding="utf-8"?>
<!-- Generator: Adobe Illustrator 20.1.0, SVG Export Plug-In . SVG Version: 6.00 Build 0)  -->
<svg version="1.1" id="Layer_1" xmlns="http://www.w3.org/2000/svg" xmlns:xlink="http://www.w3.org/1999/xlink" x="0px" y="0px"
	 viewBox="0 0 34 48" style="enable-background:new 0 0 34 48;" xml:space="preserve">
<style type="text/css">
	.st0{fill:#6D6D6D;}
</style>
<g id="Icons">
	<g id="Black" transform="translate(-707.000000, -760.000000)">
		<path id="Foursquare" class="st0" d="M735.3,766.9l-1.1,5.6c-0.1,0.6-0.7,1.1-1.4,1.1h-9.9c-1.1,0-2,0.9-2,2v1.2c0,1.1,0.9,2,2,2
			h8.3c0.8,0,1.4,0.8,1.3,1.6c-0.2,0.9-1,5.2-1.1,5.7s-0.6,1.1-1.4,1.1h-6.8c-1.4,0-1.7,0.1-2.6,1.1c-0.8,1.1-8.3,10.5-8.3,10.5
			c-0.1,0.1-0.1,0.1-0.1,0v-32.2c0-0.8,0.6-1.4,1.4-1.4h20.5C734.8,765.3,735.5,766,735.3,766.9 M736.8,760h-25.3
			c-3.5,0-4.5,2.7-4.5,4.3V805c0,2,1,2.6,1.6,2.8c0.6,0.2,2,0.4,3.1-0.7c0,0,12-14.2,12.2-14.4c0.2-0.2,0.3-0.2,0.4-0.2h7.6
			c3.2,0,3.9-2.3,4.2-3.6c0.3-1.1,3.6-17.6,4.7-22.8C741.5,762.1,740.5,760,736.8,760"/>
	</g>
</g>
</svg>
