<?xml version="1.0" encoding="utf-8"?>
<!-- Generator: Adobe Illustrator 20.1.0, SVG Export Plug-In . SVG Version: 6.00 Build 0)  -->
<svg version="1.1" id="Layer_1" xmlns="http://www.w3.org/2000/svg" xmlns:xlink="http://www.w3.org/1999/xlink" x="0px" y="0px"
	 viewBox="0 0 40 46" style="enable-background:new 0 0 40 46;" xml:space="preserve">
<style type="text/css">
	.st0{fill:#6D6D6D;}
</style>
<g id="Icons_2_">
	<g id="Black_2_" transform="translate(-503.000000, -362.000000)">
		<path id="Vine" class="st0" d="M543,384.8c-1.2,0.3-2.3,0.4-3.3,0.4c-5.8,0-10.2-4.1-10.2-11.1c0-3.5,1.3-5.3,3.2-5.3
			c1.8,0,3,1.6,3,4.9c0,1.9-0.5,3.9-0.9,5.1c0,0,1.8,3.1,6.6,2.2c1-2.3,1.6-5.3,1.6-7.9c0-7-3.6-11.1-10.1-11.1
			c-6.7,0-10.6,5.2-10.6,12.1c0,6.8,3.2,12.6,8.4,15.3c-2.2,4.4-5,8.3-7.9,11.2c-5.3-6.4-10-15-12-31.7H503
			c3.6,27.8,14.3,36.7,17.1,38.4c1.6,1,3,0.9,4.4,0.1c2.3-1.3,9.2-8.3,13-16.4c1.6,0,3.5-0.2,5.4-0.6L543,384.8L543,384.8z"/>
	</g>
</g>
</svg>
