<?xml version="1.0" encoding="utf-8"?>
<!-- Generator: Adobe Illustrator 20.1.0, SVG Export Plug-In . SVG Version: 6.00 Build 0)  -->
<svg version="1.1" id="Layer_1" xmlns="http://www.w3.org/2000/svg" xmlns:xlink="http://www.w3.org/1999/xlink" x="0px" y="0px"
	 viewBox="0 0 47.9 48" style="enable-background:new 0 0 47.9 48;" xml:space="preserve">
<style type="text/css">
	.st0{fill:#6D6D6D;}
</style>
<g id="Icons_7_">
	<g id="Black_7_" transform="translate(-500.000000, -160.000000)">
		<path id="Instagram" class="st0" d="M523.9,160c-6.5,0-7.3,0-9.9,0.1c-2.6,0.1-4.3,0.5-5.8,1.1c-1.6,0.6-2.9,1.4-4.3,2.8
			c-1.3,1.3-2.2,2.7-2.8,4.3c-0.6,1.5-1,3.3-1.1,5.8c-0.1,2.6-0.1,3.4-0.1,9.9s0,7.3,0.1,9.9c0.1,2.6,0.5,4.3,1.1,5.8
			c0.6,1.6,1.4,2.9,2.8,4.3c1.3,1.3,2.7,2.2,4.3,2.8c1.5,0.6,3.3,1,5.8,1.1c2.6,0.1,3.4,0.1,9.9,0.1s7.3,0,9.9-0.1
			c2.6-0.1,4.3-0.5,5.8-1.1c1.6-0.6,2.9-1.4,4.3-2.8c1.3-1.3,2.2-2.7,2.8-4.3c0.6-1.5,1-3.3,1.1-5.8c0.1-2.6,0.1-3.4,0.1-9.9
			s0-7.3-0.1-9.9s-0.5-4.3-1.1-5.8c-0.6-1.6-1.4-2.9-2.8-4.3c-1.3-1.3-2.7-2.2-4.3-2.8c-1.5-0.6-3.3-1-5.8-1.1
			C531.2,160,530.4,160,523.9,160z M523.9,164.3c6.4,0,7.2,0,9.7,0.1c2.3,0.1,3.6,0.5,4.5,0.8c1.1,0.4,1.9,1,2.8,1.8
			c0.8,0.8,1.4,1.6,1.8,2.8c0.3,0.8,0.7,2.1,0.8,4.5c0.1,2.5,0.1,3.3,0.1,9.7c0,6.4,0,7.2-0.1,9.7c-0.1,2.3-0.5,3.6-0.8,4.5
			c-0.4,1.1-1,1.9-1.8,2.8c-0.8,0.8-1.6,1.4-2.8,1.8c-0.8,0.3-2.1,0.7-4.5,0.8c-2.5,0.1-3.3,0.1-9.7,0.1s-7.2,0-9.7-0.1
			c-2.3-0.1-3.6-0.5-4.5-0.8c-1.1-0.4-1.9-1-2.8-1.8c-0.8-0.8-1.4-1.6-1.8-2.8c-0.3-0.8-0.7-2.1-0.8-4.5c-0.1-2.5-0.1-3.3-0.1-9.7
			s0-7.2,0.1-9.7c0.1-2.3,0.5-3.6,0.8-4.5c0.4-1.1,1-1.9,1.8-2.8c0.8-0.8,1.6-1.4,2.8-1.8c0.8-0.3,2.1-0.7,4.5-0.8
			C516.7,164.3,517.5,164.3,523.9,164.3z M523.9,171.7c-6.8,0-12.3,5.5-12.3,12.3s5.5,12.3,12.3,12.3s12.3-5.5,12.3-12.3
			S530.7,171.7,523.9,171.7z M523.9,192c-4.4,0-8-3.6-8-8s3.6-8,8-8s8,3.6,8,8S528.3,192,523.9,192z M539.6,171.2
			c0,1.6-1.3,2.9-2.9,2.9c-1.6,0-2.9-1.3-2.9-2.9s1.3-2.9,2.9-2.9C538.3,168.3,539.6,169.6,539.6,171.2z"/>
	</g>
</g>
</svg>
