<?xml version="1.0" encoding="utf-8"?>
<!-- Generator: Adobe Illustrator 20.1.0, SVG Export Plug-In . SVG Version: 6.00 Build 0)  -->
<svg version="1.1" id="Layer_1" xmlns="http://www.w3.org/2000/svg" xmlns:xlink="http://www.w3.org/1999/xlink" x="0px" y="0px"
	 viewBox="0 0 49.6 31.6" style="enable-background:new 0 0 49.6 31.6;" xml:space="preserve">
<style type="text/css">
	.st0{fill:#6D6D6D;}
</style>
<g id="Icons_8_">
	<g id="Black_8_" transform="translate(-391.000000, -163.000000)">
		<path id="GooglePlus" class="st0" d="M435.1,176.2v-5.5h-3.9v5.5h-5.6v3.9h5.6v5.6h3.9v-5.6h5.5v-3.9H435.1L435.1,176.2z
			 M406.8,175.8v6.2c0,0,6.1,0,8.5,0c-1.3,4.1-3.4,6.2-8.5,6.2c-5.2,0-9.2-4.2-9.2-9.4s4.1-9.4,9.2-9.4c2.7,0,4.5,1,6.1,2.3
			c1.3-1.3,1.2-1.5,4.5-4.6c-2.8-2.5-6.5-4.1-10.6-4.1c-8.7,0-15.8,7-15.8,15.8c0,8.7,7.1,15.8,15.8,15.8c13,0,16.1-11.3,15.1-18.9
			L406.8,175.8L406.8,175.8z"/>
	</g>
</g>
</svg>
